<svg width="56" height="56" viewBox="0 0 56 56" fill="none" xmlns="http://www.w3.org/2000/svg">
<path d="M45.5 45.5H10.5C9.57174 45.5 8.6815 45.1313 8.02513 44.4749C7.36875 43.8185 7 42.9283 7 42V17.5C7 16.5717 7.36875 15.6815 8.02513 15.0251C8.6815 14.3687 9.57174 14 10.5 14H17.5L21 8.75H35L38.5 14H45.5C46.4283 14 47.3185 14.3687 47.9749 15.0251C48.6313 15.6815 49 16.5717 49 17.5V42C49 42.9283 48.6313 43.8185 47.9749 44.4749C47.3185 45.1313 46.4283 45.5 45.5 45.5Z" stroke="white" stroke-width="2" stroke-linecap="round" stroke-linejoin="round"/>
<path d="M28 36.75C32.3492 36.75 35.875 33.2242 35.875 28.875C35.875 24.5258 32.3492 21 28 21C23.6508 21 20.125 24.5258 20.125 28.875C20.125 33.2242 23.6508 36.75 28 36.75Z" stroke="white" stroke-width="2" stroke-linecap="round" stroke-linejoin="round"/>
</svg>
